<svg xmlns="http://www.w3.org/2000/svg" width="19.69" height="16.35" viewBox="0 0 19.69 16.35">
  <defs>
    <style>
      .cls-1 {
        fill: #888;
        fill-rule: evenodd;
      }
    </style>
  </defs>
  <path class="cls-1" d="M1342.09,3665.84c-0.76.73-1.5,1.44-2.24,2.16a1.151,1.151,0,0,1-.9.37,0.458,0.458,0,0,1-.51-0.39q-0.855-2.595-1.71-5.21a0.39,0.39,0,0,0-.29-0.29c-1.35-.4-2.69-0.82-4.03-1.24a2.421,2.421,0,0,1-.52-0.23,0.449,0.449,0,0,1-.07-0.8,3.145,3.145,0,0,1,.82-0.46c1.55-.61,3.12-1.2,4.68-1.8q6.315-2.4,12.62-4.81a0.9,0.9,0,0,1,1.35,1c-0.12.81-.31,1.61-0.49,2.41q-1.245,5.82-2.5,11.63a3.041,3.041,0,0,1-.26.77,0.734,0.734,0,0,1-.92.37,2.1,2.1,0,0,1-.63-0.28c-1.4-1.01-2.79-2.04-4.19-3.06C1342.24,3665.94,1342.17,3665.89,1342.09,3665.84Zm-3.12,1.29a0.676,0.676,0,0,0,.05-0.17c0.09-.95.18-1.89,0.26-2.84a0.7,0.7,0,0,1,.25-0.52q3.48-3.09,6.97-6.21c0.39-.35.8-0.7,1.19-1.06a1.148,1.148,0,0,0,.14-0.27,1,1,0,0,0-.33-0.06,1.351,1.351,0,0,0-.41.18l-9.54,5.94a0.24,0.24,0,0,0-.12.34c0.32,0.96.63,1.92,0.95,2.88C1338.57,3665.92,1338.76,3666.5,1338.97,3667.13Z" transform="translate(-1331.59 -3653.03)"/>
</svg>
