<svg aria-hidden="true" style="position: absolute; width: 0; height: 0; overflow: hidden;" version="1.1" xmlns="http://www.w3.org/2000/svg" xmlns:xlink="http://www.w3.org/1999/xlink">
<defs>
<symbol id="icon-F" viewBox="0 0 17 32">
<path fill="#808080" style="fill: var(--color1, #808080)" d="M16.692-0.017v4.903c-1.884 0.517-4.152 0.5-5.253 1.617-0.95 0.967-0.6 3.185-0.867 5.153h5.97v5.686h-5.686v14.658h-5.97v-14.491h-4.869v-5.72h4.786c0.217-3.752-0.734-7.721 2.801-10.372 2.701-2.001 5.853-1.267 9.088-1.434z"></path>
</symbol>
<symbol id="icon-in" viewBox="0 0 32 32">
<path fill="#808080" style="fill: var(--color1, #808080)" d="M17.759 13.073c1.16-1.564 2.891-2.649 4.878-2.947l0.041-0.005c5.503-0.7 8.788 1.884 9.088 7.12 0.283 4.636 0.167 9.288 0.233 13.941 0.012 0.048 0.019 0.103 0.019 0.16 0 0.368-0.299 0.667-0.667 0.667-0.066 0-0.13-0.010-0.191-0.028l0.005 0.001c-1.718-0.017-3.435-0.033-5.169 0.017-0.046 0.011-0.099 0.017-0.154 0.017-0.39 0-0.707-0.317-0.707-0.707 0-0.069 0.010-0.136 0.028-0.199l-0.001 0.005c0.033-3.235 0.017-6.47 0-9.705-0.006-0.871-0.067-1.721-0.178-2.554l0.011 0.103c0-0.001 0-0.002 0-0.003 0-1.591-1.29-2.881-2.881-2.881-0.001 0-0.002 0-0.004 0h0c-0.168-0.030-0.361-0.048-0.558-0.048-1.62 0-2.967 1.171-3.241 2.713l-0.003 0.020c-0.149 0.842-0.234 1.811-0.234 2.8 0 0.036 0 0.071 0 0.107l-0-0.005q-0.050 4.577 0 9.155c0.017 0.9-0.25 1.217-1.167 1.167-1.601-0.067-3.202-0.033-4.786 0-0.057 0.017-0.123 0.026-0.191 0.026-0.393 0-0.712-0.319-0.712-0.712 0-0.058 0.007-0.115 0.020-0.169l-0.001 0.005q0.025-9.855 0-19.71c-0.015-0.056-0.024-0.12-0.024-0.185 0-0.41 0.332-0.742 0.742-0.742 0.071 0 0.139 0.010 0.204 0.028l-0.005-0.001q2.301 0.075 4.602 0c0.767-0.033 1.101 0.2 1.017 1.001-0.023 0.268-0.036 0.581-0.036 0.897 0 0.23 0.007 0.459 0.020 0.685l-0.002-0.031zM0.55 21.228c0-3.235 0.033-6.47-0.017-9.705-0.020-0.067-0.031-0.144-0.031-0.224 0-0.448 0.364-0.812 0.812-0.812 0.084 0 0.166 0.013 0.242 0.037l-0.006-0.002c1.651 0.050 3.318 0.033 4.969 0 0.047-0.011 0.101-0.018 0.157-0.018 0.39 0 0.705 0.316 0.705 0.705 0 0.046-0.004 0.091-0.013 0.134l0.001-0.004c-0.017 6.587 0 13.19 0 19.777 0.013 0.051 0.021 0.111 0.021 0.171 0 0.39-0.316 0.705-0.705 0.705-0.041 0-0.081-0.003-0.12-0.010l0.004 0.001c-1.751-0.017-3.502-0.033-5.253 0-0.65 0.017-0.767-0.3-0.767-0.867 0.017-3.302 0-6.587 0-9.888zM3.985-0.017c2.173 0.019 3.927 1.785 3.927 3.96 0 2.187-1.773 3.961-3.961 3.961-0.012 0-0.023-0-0.035-0h0.002c-2.173-0.019-3.927-1.785-3.927-3.96 0-2.187 1.773-3.961 3.961-3.961 0.012 0 0.023 0 0.035 0h-0.002z"></path>
</symbol>
<symbol id="icon-inst" viewBox="0 0 32 32">
<path fill="#808080" style="fill: var(--color1, #808080)" d="M16.025 32c-2.485-0.083-4.986-0.083-7.471-0.25-4.353-0.070-7.903-3.412-8.302-7.67l-0.003-0.034c-0.149-1.145-0.234-2.47-0.234-3.814 0-0.049 0-0.097 0-0.146l-0 0.008q-0.025-5.228 0.067-10.472c-0.001-0.055-0.002-0.121-0.002-0.186 0-1.765 0.432-3.429 1.197-4.891l-0.028 0.058c1.141-2.137 3.144-3.686 5.533-4.193l0.053-0.010c1.33-0.272 2.858-0.428 4.422-0.428 0.251 0 0.501 0.004 0.75 0.012l-0.036-0.001c3.435-0.017 6.87 0.017 10.305 0.067 0.060-0.001 0.131-0.002 0.202-0.002 1.793 0 3.486 0.432 4.979 1.198l-0.062-0.029c2.267 1.188 3.877 3.365 4.263 5.942l0.005 0.044c0.212 1.388 0.334 2.99 0.334 4.62 0 0.041-0 0.082-0 0.122l0-0.006c0.033 3.402 0 6.787-0.050 10.189 0.001 0.061 0.002 0.132 0.002 0.204 0 1.804-0.432 3.507-1.198 5.012l0.029-0.063c-1.144 2.135-3.146 3.683-5.532 4.193l-0.054 0.010c-1.372 0.28-2.948 0.44-4.562 0.44-0.19 0-0.379-0.002-0.568-0.007l0.028 0.001c-1.351 0.033-2.718 0-4.069 0v0.083zM29.165 15.975c-0.050-2.335-0.1-4.652-0.15-6.987-0.013-0.251-0.042-0.486-0.089-0.714l0.005 0.031c-0.125-2.557-2.004-4.641-4.453-5.081l-0.033-0.005c-0.995-0.212-2.138-0.334-3.309-0.334-0.032 0-0.065 0-0.097 0l0.005-0c-3.352-0.033-6.72-0.017-10.072 0-0.948 0.012-1.867 0.079-2.77 0.196l0.119-0.013c-2.557 0.126-4.64 2.004-5.081 4.453l-0.005 0.033c-0.202 1.009-0.317 2.17-0.317 3.357 0 0.016 0 0.032 0 0.047v-0.002c-0.033 3.285-0.033 6.587 0 9.872 0.012 1.181 0.115 2.328 0.301 3.447l-0.018-0.129c0.273 2.058 1.699 3.724 3.598 4.342l0.037 0.011c1.060 0.325 2.278 0.511 3.54 0.511 0.186 0 0.371-0.004 0.555-0.012l-0.026 0.001q5.978 0.025 11.956-0.083c0.031 0.001 0.067 0.001 0.103 0.001 1.476 0 2.834-0.502 3.913-1.345l-0.014 0.011c1.321-1.122 2.153-2.783 2.153-4.64 0-0.057-0.001-0.114-0.002-0.171l0 0.008c0.1-2.268 0.1-4.536 0.15-6.804zM24.246 15.958c-0 4.55-3.688 8.238-8.238 8.238s-8.238-3.688-8.238-8.238c0-4.55 3.688-8.238 8.238-8.238 0.012 0 0.023 0 0.035 0h-0.002c4.526 0.041 8.182 3.709 8.204 8.235v0.002zM21.328 15.958c0-0.005 0-0.011 0-0.017 0-2.938-2.382-5.319-5.319-5.319s-5.319 2.382-5.319 5.319c0 2.926 2.363 5.3 5.284 5.319h0.002c0.023 0 0.051 0.001 0.078 0.001 2.913 0 5.274-2.361 5.274-5.274 0-0.010-0-0.020-0-0.030v0.002zM26.464 7.421c0 0.001 0 0.002 0 0.003 0 1.053-0.849 1.907-1.9 1.914h-0.001c-1.058-0.025-1.909-0.876-1.934-1.932l-0-0.002c0.021-1.053 0.879-1.898 1.934-1.901h0c0.006-0 0.012-0 0.019-0 1.040 0 1.883 0.843 1.883 1.883 0 0.012-0 0.025-0 0.037l0-0.002z"></path>
</symbol>
<symbol id="icon-Telegram" viewBox="0 0 39 32">
<path fill="#808080" style="fill: var(--color1, #808080)" d="M20.55 25.072c-1.487 1.429-2.936 2.818-4.384 4.228-0.413 0.447-1.002 0.727-1.657 0.727-0.037 0-0.073-0.001-0.11-0.003l0.005 0c-0.033 0.004-0.072 0.007-0.111 0.007-0.451 0-0.823-0.332-0.887-0.765l-0.001-0.005q-1.673-5.079-3.347-10.197c-0.068-0.282-0.286-0.499-0.562-0.567l-0.005-0.001c-2.642-0.783-5.265-1.605-7.887-2.427-0.389-0.121-0.726-0.274-1.039-0.462l0.021 0.012c-0.328-0.132-0.555-0.448-0.555-0.817 0-0.315 0.166-0.591 0.415-0.746l0.004-0.002c0.461-0.362 0.991-0.665 1.563-0.886l0.042-0.014c3.034-1.194 6.106-2.349 9.16-3.523q12.36-4.697 24.7-9.414c0.267-0.172 0.594-0.275 0.945-0.275 0.973 0 1.761 0.789 1.761 1.761 0 0.167-0.023 0.329-0.067 0.483l0.003-0.012c-0.235 1.585-0.607 3.151-0.959 4.717q-2.437 11.391-4.893 22.762c-0.112 0.568-0.288 1.072-0.524 1.541l0.016-0.034c-0.237 0.487-0.728 0.816-1.296 0.816-0.181 0-0.355-0.034-0.515-0.095l0.010 0.003c-0.468-0.123-0.879-0.311-1.248-0.557l0.015 0.009c-2.74-1.977-5.461-3.993-8.201-5.989-0.117-0.078-0.254-0.176-0.411-0.274zM14.444 27.596c0.044-0.096 0.078-0.208 0.097-0.325l0.001-0.008c0.176-1.859 0.352-3.699 0.509-5.558 0.010-0.409 0.197-0.771 0.487-1.016l0.002-0.002q6.811-6.048 13.642-12.154c0.763-0.685 1.566-1.37 2.329-2.075 0.108-0.152 0.2-0.327 0.269-0.513l0.005-0.016c-0.192-0.072-0.413-0.115-0.645-0.117h-0.001c-0.305 0.078-0.572 0.199-0.812 0.358l-18.662 11.62c-0.174 0.071-0.295 0.24-0.295 0.436 0 0.084 0.022 0.163 0.061 0.232l-0.001-0.002c0.626 1.879 1.233 3.758 1.859 5.637 0.372 1.135 0.744 2.27 1.155 3.503z"></path>
</symbol>
<symbol id="icon-tw" viewBox="0 0 39 32">
<path fill="#808080" style="fill: var(--color1, #808080)" d="M38.133 1.089c-0.688 1.108-1.395 2.235-2.254 3.592 1.089-0.287 2.082-0.535 3.592-0.936-0.582 0.977-1.273 1.814-2.073 2.532l-0.010 0.009c-2.044 1.204-2.14 3.152-2.331 5.12-0.809 9.992-8.061 18.082-17.562 20.147l-0.148 0.027c-1.4 0.315-3.009 0.495-4.659 0.495-4.75 0-9.15-1.494-12.758-4.038l0.070 0.047c0.531 0.061 1.146 0.097 1.769 0.097 3.494 0 6.731-1.102 9.381-2.977l-0.051 0.034c-3.12-0.622-5.616-2.808-6.667-5.689l-0.020-0.062c0.726-0.096 1.356-0.172 2.197-0.267-2.885-1.891-5.082-4.107-5.024-7.967 0.86 0.248 1.586 0.439 2.732 0.764-2.808-3.381-3.63-6.687-1.452-10.641 3.829 4.701 9.432 7.83 15.774 8.362l0.083 0.006c0.136-1.475 0.352-2.804 0.651-4.101l-0.040 0.204c0.913-3.387 3.958-5.838 7.575-5.838 1.516 0 2.932 0.431 4.131 1.177l-0.033-0.019c0.787 0.573 1.773 0.917 2.839 0.917 1.031 0 1.988-0.322 2.774-0.871l-0.016 0.010c0.292-0.143 0.664-0.298 1.046-0.433l0.081-0.025c0.134 0.115 0.267 0.21 0.401 0.325z"></path>
</symbol>
</defs>
</svg>
